<svg id="visual" viewBox="0 0 900 600" width="900" height="600" xmlns="http://www.w3.org/2000/svg" xmlns:xlink="http://www.w3.org/1999/xlink" version="1.1"><rect x="0" y="0" width="900" height="600" fill="#001220"></rect><defs><linearGradient id="grad1_0" x1="33.3%" y1="0%" x2="100%" y2="100%"><stop offset="20%" stop-color="#fbae3c" stop-opacity="1"></stop><stop offset="80%" stop-color="#fbae3c" stop-opacity="1"></stop></linearGradient></defs><defs><linearGradient id="grad1_1" x1="33.3%" y1="0%" x2="100%" y2="100%"><stop offset="20%" stop-color="#fbae3c" stop-opacity="1"></stop><stop offset="80%" stop-color="#f48350" stop-opacity="1"></stop></linearGradient></defs><defs><linearGradient id="grad1_2" x1="33.3%" y1="0%" x2="100%" y2="100%"><stop offset="20%" stop-color="#d96162" stop-opacity="1"></stop><stop offset="80%" stop-color="#f48350" stop-opacity="1"></stop></linearGradient></defs><defs><linearGradient id="grad1_3" x1="33.3%" y1="0%" x2="100%" y2="100%"><stop offset="20%" stop-color="#d96162" stop-opacity="1"></stop><stop offset="80%" stop-color="#af4b6d" stop-opacity="1"></stop></linearGradient></defs><defs><linearGradient id="grad1_4" x1="33.3%" y1="0%" x2="100%" y2="100%"><stop offset="20%" stop-color="#7c3e6b" stop-opacity="1"></stop><stop offset="80%" stop-color="#af4b6d" stop-opacity="1"></stop></linearGradient></defs><defs><linearGradient id="grad1_5" x1="33.3%" y1="0%" x2="100%" y2="100%"><stop offset="20%" stop-color="#7c3e6b" stop-opacity="1"></stop><stop offset="80%" stop-color="#49335c" stop-opacity="1"></stop></linearGradient></defs><defs><linearGradient id="grad1_6" x1="33.3%" y1="0%" x2="100%" y2="100%"><stop offset="20%" stop-color="#1d2540" stop-opacity="1"></stop><stop offset="80%" stop-color="#49335c" stop-opacity="1"></stop></linearGradient></defs><defs><linearGradient id="grad1_7" x1="33.3%" y1="0%" x2="100%" y2="100%"><stop offset="20%" stop-color="#1d2540" stop-opacity="1"></stop><stop offset="80%" stop-color="#001220" stop-opacity="1"></stop></linearGradient></defs><defs><linearGradient id="grad2_0" x1="0%" y1="0%" x2="66.7%" y2="100%"><stop offset="20%" stop-color="#fbae3c" stop-opacity="1"></stop><stop offset="80%" stop-color="#fbae3c" stop-opacity="1"></stop></linearGradient></defs><defs><linearGradient id="grad2_1" x1="0%" y1="0%" x2="66.7%" y2="100%"><stop offset="20%" stop-color="#f48350" stop-opacity="1"></stop><stop offset="80%" stop-color="#fbae3c" stop-opacity="1"></stop></linearGradient></defs><defs><linearGradient id="grad2_2" x1="0%" y1="0%" x2="66.7%" y2="100%"><stop offset="20%" stop-color="#f48350" stop-opacity="1"></stop><stop offset="80%" stop-color="#d96162" stop-opacity="1"></stop></linearGradient></defs><defs><linearGradient id="grad2_3" x1="0%" y1="0%" x2="66.7%" y2="100%"><stop offset="20%" stop-color="#af4b6d" stop-opacity="1"></stop><stop offset="80%" stop-color="#d96162" stop-opacity="1"></stop></linearGradient></defs><defs><linearGradient id="grad2_4" x1="0%" y1="0%" x2="66.7%" y2="100%"><stop offset="20%" stop-color="#af4b6d" stop-opacity="1"></stop><stop offset="80%" stop-color="#7c3e6b" stop-opacity="1"></stop></linearGradient></defs><defs><linearGradient id="grad2_5" x1="0%" y1="0%" x2="66.7%" y2="100%"><stop offset="20%" stop-color="#49335c" stop-opacity="1"></stop><stop offset="80%" stop-color="#7c3e6b" stop-opacity="1"></stop></linearGradient></defs><defs><linearGradient id="grad2_6" x1="0%" y1="0%" x2="66.7%" y2="100%"><stop offset="20%" stop-color="#49335c" stop-opacity="1"></stop><stop offset="80%" stop-color="#1d2540" stop-opacity="1"></stop></linearGradient></defs><defs><linearGradient id="grad2_7" x1="0%" y1="0%" x2="66.7%" y2="100%"><stop offset="20%" stop-color="#001220" stop-opacity="1"></stop><stop offset="80%" stop-color="#1d2540" stop-opacity="1"></stop></linearGradient></defs><g transform="translate(900, 0)"><path d="M0 486.7C-86.2 474.7 -172.5 462.6 -243.4 421.5C-314.3 380.5 -369.9 310.6 -407.9 235.5C-445.9 160.4 -466.3 80.2 -486.7 0L0 0Z" fill="#0c1c30"></path><path d="M0 425.9C-75.5 415.3 -150.9 404.7 -213 368.8C-275 333 -323.7 271.8 -356.9 206.1C-390.2 140.4 -408 70.2 -425.9 0L0 0Z" fill="#312c4f"></path><path d="M0 365.1C-64.7 356 -129.3 346.9 -182.5 316.2C-235.7 285.4 -277.4 232.9 -305.9 176.6C-334.4 120.3 -349.7 60.2 -365.1 0L0 0Z" fill="#623965"></path><path d="M0 304.2C-53.9 296.7 -107.8 289.1 -152.1 263.5C-196.4 237.8 -231.2 194.1 -254.9 147.2C-278.7 100.3 -291.5 50.1 -304.2 0L0 0Z" fill="#96446e"></path><path d="M0 243.4C-43.1 237.3 -86.2 231.3 -121.7 210.8C-157.1 190.3 -184.9 155.3 -203.9 117.8C-223 80.2 -233.2 40.1 -243.4 0L0 0Z" fill="#c55469"></path><path d="M0 182.5C-32.3 178 -64.7 173.5 -91.3 158.1C-117.9 142.7 -138.7 116.5 -153 88.3C-167.2 60.2 -174.9 30.1 -182.5 0L0 0Z" fill="#e9705a"></path><path d="M0 121.7C-21.6 118.7 -43.1 115.6 -60.8 105.4C-78.6 95.1 -92.5 77.6 -102 58.9C-111.5 40.1 -116.6 20.1 -121.7 0L0 0Z" fill="#fa9845"></path><path d="M0 60.8C-10.8 59.3 -21.6 57.8 -30.4 52.7C-39.3 47.6 -46.2 38.8 -51 29.4C-55.7 20.1 -58.3 10 -60.8 0L0 0Z" fill="#fbae3c"></path></g><g transform="translate(0, 600)"><path d="M0 -486.7C94.1 -479.2 188.2 -471.6 243.4 -421.5C298.6 -371.5 314.9 -278.8 349 -201.5C383.1 -124.2 434.9 -62.1 486.7 0L0 0Z" fill="#0c1c30"></path><path d="M0 -425.9C82.3 -419.3 164.6 -412.7 213 -368.8C261.3 -325 275.6 -244 305.4 -176.3C335.2 -108.6 380.6 -54.3 425.9 0L0 0Z" fill="#312c4f"></path><path d="M0 -365.1C70.6 -359.4 141.1 -353.7 182.5 -316.2C223.9 -278.6 236.2 -209.1 261.8 -151.1C287.3 -93.1 326.2 -46.6 365.1 0L0 0Z" fill="#623965"></path><path d="M0 -304.2C58.8 -299.5 117.6 -294.8 152.1 -263.5C186.6 -232.2 196.8 -174.3 218.1 -125.9C239.4 -77.6 271.8 -38.8 304.2 0L0 0Z" fill="#96446e"></path><path d="M0 -243.4C47 -239.6 94.1 -235.8 121.7 -210.8C149.3 -185.7 157.5 -139.4 174.5 -100.8C191.5 -62.1 217.5 -31 243.4 0L0 0Z" fill="#c55469"></path><path d="M0 -182.5C35.3 -179.7 70.6 -176.9 91.3 -158.1C112 -139.3 118.1 -104.6 130.9 -75.6C143.7 -46.6 163.1 -23.3 182.5 0L0 0Z" fill="#e9705a"></path><path d="M0 -121.7C23.5 -119.8 47 -117.9 60.8 -105.4C74.6 -92.9 78.7 -69.7 87.3 -50.4C95.8 -31 108.7 -15.5 121.7 0L0 0Z" fill="#fa9845"></path><path d="M0 -60.8C11.8 -59.9 23.5 -59 30.4 -52.7C37.3 -46.4 39.4 -34.9 43.6 -25.2C47.9 -15.5 54.4 -7.8 60.8 0L0 0Z" fill="#fbae3c"></path></g></svg>